<svg width="238" height="184" viewBox="0 0 238 184" fill="none" xmlns="http://www.w3.org/2000/svg">
<rect width="238" height="184" fill="#E5E5E5"/>
<g id="Landing Page (Drawer-Deactivation of account)" clip-path="url(#clip0_0_1)">
<rect width="375" height="812" transform="translate(-68 -263)" fill="white"/>
<g id="Content">
</g>
<g id="undraw_performance_overview_re_mqrq 1" clip-path="url(#clip1_0_1)">
<path id="Vector" d="M32.3003 178.284L34.8572 174.186L35.3679 176.528C35.4575 176.938 35.547 177.355 35.6299 177.768C36.3561 177.15 37.1289 176.577 37.8849 176.028C40.2063 174.348 42.5266 172.666 44.8459 170.981L44.1196 175.182C43.6719 177.768 43.2042 180.407 42.0967 182.772C41.9739 183.04 41.8413 183.305 41.6986 183.563H30.9074C30.8206 183.323 30.7606 183.075 30.7284 182.822C30.7257 182.806 30.7246 182.789 30.7251 182.772C30.5559 181.168 31.4447 179.657 32.3003 178.284Z" fill="#F0F0F0"/>
<path id="Vector_2" d="M194.797 0H42.9118C41.6069 0.00206857 40.356 0.51998 39.4333 1.44024C38.5105 2.3605 37.9912 3.60805 37.9891 4.9095V107.129C37.9904 108.43 38.5094 109.678 39.4324 110.599C40.3553 111.519 41.6066 112.037 42.9118 112.038H194.797C196.102 112.037 197.353 111.519 198.276 110.599C199.199 109.678 199.718 108.43 199.72 107.129V4.90949C199.717 3.60804 199.198 2.36049 198.275 1.44024C197.353 0.519978 196.102 0.00206856 194.797 0Z" fill="#E6E6E6"/>
<path id="Vector_3" d="M193.861 108.654H94.3405C80.3956 108.613 67.0334 103.07 57.1729 93.2361C47.3123 83.4018 41.7547 70.0753 41.714 56.1676V6.17704C41.7141 5.43638 42.0088 4.72601 42.5334 4.20178C43.0581 3.67755 43.7698 3.38228 44.5124 3.38074H193.861C194.603 3.38227 195.315 3.67755 195.84 4.20178C196.364 4.72601 196.659 5.43637 196.659 6.17704V105.863C196.658 106.603 196.363 107.312 195.839 107.835C195.314 108.359 194.603 108.653 193.861 108.654Z" fill="white"/>
<path id="Vector_4" d="M186.022 17.2805H46.2769C46.1316 17.2773 45.9934 17.2175 45.8918 17.1139C45.7902 17.0103 45.7333 16.8712 45.7333 16.7262C45.7333 16.5813 45.7902 16.4422 45.8918 16.3386C45.9934 16.235 46.1316 16.1752 46.2769 16.172H186.022C186.167 16.1752 186.305 16.235 186.407 16.3386C186.508 16.4422 186.565 16.5813 186.565 16.7262C186.565 16.8712 186.508 17.0103 186.407 17.1139C186.305 17.2175 186.167 17.2773 186.022 17.2805Z" fill="#CACACA"/>
<path id="Vector_5" d="M55.7895 13.3422C57.5882 13.3422 59.0463 11.8555 59.0463 10.0217C59.0463 8.18781 57.5882 6.70117 55.7895 6.70117C53.9908 6.70117 52.5327 8.18781 52.5327 10.0217C52.5327 11.8555 53.9908 13.3422 55.7895 13.3422Z" fill="#3F3D56"/>
<path id="Vector_6" d="M67.0404 13.3422C68.8391 13.3422 70.2972 11.8555 70.2972 10.0217C70.2972 8.18781 68.8391 6.70117 67.0404 6.70117C65.2417 6.70117 63.7836 8.18781 63.7836 10.0217C63.7836 11.8555 65.2417 13.3422 67.0404 13.3422Z" fill="#3F3D56"/>
<path id="Vector_7" d="M78.2911 13.3422C80.0898 13.3422 81.5479 11.8555 81.5479 10.0217C81.5479 8.18781 80.0898 6.70117 78.2911 6.70117C76.4924 6.70117 75.0343 8.18781 75.0343 10.0217C75.0343 11.8555 76.4924 13.3422 78.2911 13.3422Z" fill="#3F3D56"/>
<path id="Vector_8" d="M141.445 67.1045H84.853C83.8292 67.1176 82.8385 66.7434 82.0801 66.0573C81.3218 65.3712 80.8523 64.4241 80.766 63.4065C80.7306 62.8862 80.7983 62.3641 80.9652 61.8699C81.1322 61.3757 81.3951 60.9191 81.739 60.5262C82.0828 60.1334 82.5009 59.8119 82.9694 59.5802C83.4378 59.3484 83.9474 59.211 84.4691 59.1757C84.5581 59.1697 84.6472 59.1667 84.7364 59.1666H141.445C142.5 59.1666 143.513 59.5848 144.259 60.3291C145.005 61.0734 145.424 62.0829 145.424 63.1356C145.424 64.1882 145.005 65.1977 144.259 65.942C143.513 66.6863 142.5 67.1045 141.445 67.1045Z" fill="#1565C8"/>
<path id="Vector_9" d="M141.55 44.8763C143.535 44.8763 145.145 43.2709 145.145 41.2905C145.145 39.3102 143.535 37.7048 141.55 37.7048C139.564 37.7048 137.954 39.3102 137.954 41.2905C137.954 43.2709 139.564 44.8763 141.55 44.8763Z" fill="#E6E6E6"/>
<path id="Vector_10" d="M141.059 43.1568C140.997 43.1568 140.936 43.1424 140.881 43.1147C140.825 43.087 140.777 43.0467 140.739 42.9972L139.759 41.6928C139.727 41.651 139.704 41.6032 139.69 41.5524C139.677 41.5015 139.674 41.4485 139.681 41.3965C139.689 41.3445 139.706 41.2944 139.733 41.2491C139.76 41.2039 139.795 41.1643 139.837 41.1328C139.88 41.1013 139.928 41.0784 139.979 41.0654C140.03 41.0524 140.083 41.0496 140.135 41.0572C140.187 41.0648 140.237 41.0826 140.282 41.1095C140.328 41.1365 140.367 41.1721 140.398 41.2143L141.04 42.0675L142.688 39.6019C142.747 39.5137 142.838 39.4522 142.942 39.4311C143.046 39.41 143.154 39.4309 143.243 39.4893C143.331 39.5477 143.393 39.6387 143.414 39.7423C143.435 39.846 143.414 39.9538 143.355 40.042L143.354 40.0444L141.392 42.9792C141.357 43.0322 141.309 43.0761 141.253 43.1069C141.197 43.1378 141.134 43.1549 141.07 43.1567L141.059 43.1568Z" fill="white"/>
<path id="Vector_11" d="M141.55 88.5344C143.535 88.5344 145.145 86.929 145.145 84.9487C145.145 82.9683 143.535 81.3629 141.55 81.3629C139.564 81.3629 137.954 82.9683 137.954 84.9487C137.954 86.929 139.564 88.5344 141.55 88.5344Z" fill="#E6E6E6"/>
<path id="Vector_12" d="M141.059 86.8149C140.997 86.8149 140.936 86.8005 140.881 86.7728C140.825 86.7451 140.777 86.7049 140.739 86.6553L139.759 85.351C139.727 85.3091 139.704 85.2614 139.69 85.2105C139.677 85.1597 139.674 85.1067 139.681 85.0546C139.689 85.0026 139.706 84.9525 139.733 84.9073C139.76 84.862 139.795 84.8225 139.837 84.791C139.88 84.7594 139.928 84.7365 139.979 84.7235C140.03 84.7106 140.083 84.7078 140.135 84.7154C140.187 84.7229 140.237 84.7407 140.282 84.7676C140.328 84.7946 140.367 84.8302 140.398 84.8724L141.04 85.7257L142.688 83.2601C142.747 83.1718 142.838 83.1104 142.942 83.0893C143.046 83.0681 143.154 83.0891 143.243 83.1474C143.331 83.2058 143.393 83.2968 143.414 83.4005C143.435 83.5041 143.414 83.6119 143.355 83.7002L143.354 83.7026L141.392 86.6373C141.357 86.6904 141.309 86.7342 141.253 86.7651C141.197 86.796 141.134 86.813 141.07 86.8148L141.059 86.8149Z" fill="white"/>
<path id="Vector_13" d="M112.593 45.2754H84.853C83.8292 45.2886 82.8385 44.9144 82.0801 44.2283C81.3218 43.5422 80.8523 42.595 80.766 41.5775C80.7306 41.0572 80.7983 40.535 80.9652 40.0408C81.1322 39.5466 81.3951 39.0901 81.739 38.6972C82.0828 38.3043 82.5009 37.9828 82.9694 37.7511C83.4378 37.5194 83.9474 37.382 84.4691 37.3467C84.5581 37.3407 84.6472 37.3376 84.7364 37.3376H112.593C113.649 37.3376 114.661 37.7557 115.407 38.5001C116.154 39.2444 116.573 40.2539 116.573 41.3065C116.573 42.3591 116.154 43.3686 115.407 44.113C114.661 44.8573 113.649 45.2754 112.593 45.2754Z" fill="#1565C8"/>
<path id="Vector_14" d="M141.445 45.4408H84.7364C83.637 45.4408 82.5826 45.0052 81.8052 44.2299C81.0278 43.4545 80.5911 42.403 80.5911 41.3065C80.5911 40.21 81.0278 39.1584 81.8052 38.3831C82.5826 37.6078 83.637 37.1722 84.7364 37.1722H141.445C142.544 37.1722 143.599 37.6078 144.376 38.3831C145.154 39.1584 145.59 40.21 145.59 41.3065C145.59 42.403 145.154 43.4545 144.376 44.2299C143.599 45.0052 142.544 45.4408 141.445 45.4408ZM84.7364 37.8337C83.8129 37.8337 82.9272 38.1996 82.2742 38.8508C81.6212 39.5021 81.2543 40.3854 81.2543 41.3065C81.2543 42.2275 81.6212 43.1108 82.2742 43.7621C82.9272 44.4134 83.8129 44.7793 84.7364 44.7793H141.445C142.368 44.7793 143.254 44.4134 143.907 43.7621C144.56 43.1108 144.927 42.2275 144.927 41.3065C144.927 40.3854 144.56 39.5021 143.907 38.8508C143.254 38.1996 142.368 37.8337 141.445 37.8337H84.7364Z" fill="#3F3D56"/>
<path id="Vector_15" d="M141.445 67.2699H84.7364C83.637 67.2699 82.5826 66.8343 81.8052 66.059C81.0278 65.2836 80.5911 64.2321 80.5911 63.1356C80.5911 62.0391 81.0278 60.9875 81.8052 60.2122C82.5826 59.4369 83.637 59.0013 84.7364 59.0013H141.445C142.544 59.0013 143.599 59.4369 144.376 60.2122C145.154 60.9875 145.59 62.0391 145.59 63.1356C145.59 64.2321 145.154 65.2836 144.376 66.059C143.599 66.8343 142.544 67.2699 141.445 67.2699ZM84.7364 59.6628C83.8129 59.6628 82.9272 60.0287 82.2742 60.6799C81.6212 61.3312 81.2543 62.2145 81.2543 63.1356C81.2543 64.0566 81.6212 64.9399 82.2742 65.5912C82.9272 66.2425 83.8129 66.6084 84.7364 66.6084H141.445C142.368 66.6084 143.254 66.2425 143.907 65.5912C144.56 64.9399 144.927 64.0566 144.927 63.1356C144.927 62.2145 144.56 61.3312 143.907 60.6799C143.254 60.0287 142.368 59.6628 141.445 59.6628H84.7364Z" fill="#3F3D56"/>
<path id="Vector_16" d="M100.655 88.9336H84.853C83.8292 88.9467 82.8385 88.5725 82.0801 87.8864C81.3218 87.2003 80.8523 86.2532 80.766 85.2356C80.7306 84.7153 80.7983 84.1932 80.9652 83.699C81.1322 83.2048 81.3951 82.7482 81.739 82.3553C82.0828 81.9625 82.5009 81.641 82.9694 81.4093C83.4378 81.1775 83.9474 81.0401 84.4691 81.0048C84.5581 80.9988 84.6472 80.9958 84.7364 80.9957H100.655C101.71 80.9957 102.722 81.4139 103.469 82.1582C104.215 82.9025 104.634 83.912 104.634 84.9647C104.634 86.0173 104.215 87.0268 103.469 87.7711C102.722 88.5154 101.71 88.9336 100.655 88.9336Z" fill="#1565C8"/>
<path id="Vector_17" d="M141.445 89.099H84.7364C83.637 89.099 82.5826 88.6634 81.8052 87.8881C81.0278 87.1127 80.5911 86.0612 80.5911 84.9647C80.5911 83.8682 81.0278 82.8166 81.8052 82.0413C82.5826 81.266 83.637 80.8304 84.7364 80.8304H141.445C142.544 80.8304 143.599 81.266 144.376 82.0413C145.154 82.8166 145.59 83.8682 145.59 84.9647C145.59 86.0612 145.154 87.1127 144.376 87.8881C143.599 88.6634 142.544 89.099 141.445 89.099ZM84.7364 81.4919C83.8129 81.4919 82.9272 81.8578 82.2742 82.509C81.6212 83.1603 81.2543 84.0436 81.2543 84.9647C81.2543 85.8857 81.6212 86.769 82.2742 87.4203C82.9272 88.0716 83.8129 88.4375 84.7364 88.4375H141.445C142.368 88.4375 143.254 88.0716 143.907 87.4203C144.56 86.769 144.927 85.8857 144.927 84.9647C144.927 84.0436 144.56 83.1603 143.907 82.509C143.254 81.8578 142.368 81.4919 141.445 81.4919H84.7364Z" fill="#3F3D56"/>
<path id="Vector_18" d="M95.3489 33.0744H82.0837C81.7319 33.0744 81.3945 32.935 81.1457 32.6869C80.897 32.4388 80.7572 32.1023 80.7572 31.7514C80.7572 31.4005 80.897 31.064 81.1457 30.8159C81.3945 30.5678 81.7319 30.4284 82.0837 30.4284H95.3489C95.7007 30.4284 96.0381 30.5678 96.2869 30.8159C96.5356 31.064 96.6754 31.4005 96.6754 31.7514C96.6754 32.1023 96.5356 32.4388 96.2869 32.6869C96.0381 32.935 95.7007 33.0744 95.3489 33.0744Z" fill="#CCCCCC"/>
<path id="Vector_19" d="M95.3489 54.9035H82.0837C81.7319 54.9035 81.3945 54.7641 81.1457 54.516C80.897 54.2679 80.7572 53.9314 80.7572 53.5805C80.7572 53.2296 80.897 52.8931 81.1457 52.645C81.3945 52.3969 81.7319 52.2575 82.0837 52.2575H95.3489C95.7007 52.2575 96.0381 52.3969 96.2869 52.645C96.5356 52.8931 96.6754 53.2296 96.6754 53.5805C96.6754 53.9314 96.5356 54.2679 96.2869 54.516C96.0381 54.7641 95.7007 54.9035 95.3489 54.9035Z" fill="#CCCCCC"/>
<path id="Vector_20" d="M95.3489 76.7326H82.0837C81.7319 76.7326 81.3945 76.5932 81.1457 76.3451C80.897 76.097 80.7572 75.7605 80.7572 75.4096C80.7572 75.0587 80.897 74.7222 81.1457 74.4741C81.3945 74.226 81.7319 74.0866 82.0837 74.0866H95.3489C95.7007 74.0866 96.0381 74.226 96.2869 74.4741C96.5356 74.7222 96.6754 75.0587 96.6754 75.4096C96.6754 75.7605 96.5356 76.097 96.2869 76.3451C96.0381 76.5932 95.7007 76.7326 95.3489 76.7326Z" fill="#CCCCCC"/>
<path id="Vector_21" d="M75.4548 33.359C76.2509 33.359 76.8963 32.701 76.8963 31.8894C76.8963 31.0778 76.2509 30.4198 75.4548 30.4198C74.6588 30.4198 74.0134 31.0778 74.0134 31.8894C74.0134 32.701 74.6588 33.359 75.4548 33.359Z" fill="#3F3D56"/>
<path id="Vector_22" d="M75.4548 55.1881C76.2509 55.1881 76.8963 54.5301 76.8963 53.7185C76.8963 52.9069 76.2509 52.2489 75.4548 52.2489C74.6588 52.2489 74.0134 52.9069 74.0134 53.7185C74.0134 54.5301 74.6588 55.1881 75.4548 55.1881Z" fill="#3F3D56"/>
<path id="Vector_23" d="M75.4548 77.0171C76.2509 77.0171 76.8963 76.3592 76.8963 75.5475C76.8963 74.7359 76.2509 74.0779 75.4548 74.0779C74.6588 74.0779 74.0134 74.7359 74.0134 75.5475C74.0134 76.3592 74.6588 77.0171 75.4548 77.0171Z" fill="#3F3D56"/>
<path id="Vector_24" d="M170.439 179.988L167.156 179.987L165.594 167.356L170.44 167.357L170.439 179.988Z" fill="#FFB6B6"/>
<path id="Vector_25" d="M170.555 183.404L160.458 183.404V183.276C160.458 182.237 160.872 181.24 161.609 180.505C162.346 179.77 163.346 179.357 164.388 179.357L166.232 177.961L169.674 179.357L170.555 179.357L170.555 183.404Z" fill="#2F2E41"/>
<path id="Vector_26" d="M183.373 179.988L180.089 179.987L178.527 167.356L183.373 167.357L183.373 179.988Z" fill="#FFB6B6"/>
<path id="Vector_27" d="M183.488 183.404L173.391 183.404V183.276C173.391 182.237 173.805 181.24 174.542 180.505C175.279 179.77 176.279 179.357 177.321 179.357L179.166 177.961L182.607 179.357L183.489 179.357L183.488 183.404Z" fill="#2F2E41"/>
<path id="Vector_28" d="M159.14 100.877L156.819 108.815L159.553 142.433C159.553 142.433 158.145 144.535 159.14 144.535C160.135 144.535 161.411 145.001 160.607 146.256C159.803 147.512 162.55 152.018 162.55 152.018L166.436 175.956L171.387 175.883C171.387 175.883 173.904 174.484 172.491 173.07C171.079 171.656 170.084 171.656 171.41 170.333C172.737 169.01 172.737 169.409 172.737 168.382C172.737 167.356 174.066 154.817 170.914 150.007L171.864 130.395L174.101 149.632L178.706 175.294L183.476 175.255C183.476 175.255 185.679 173.137 185.674 171.57C185.67 170.002 184.313 169.872 185.324 168.945C186.334 168.018 186.334 153.775 183.349 145.858L183.372 110.445C183.372 110.445 186.304 102.497 183.334 99.3717C180.364 96.2464 159.14 100.877 159.14 100.877Z" fill="#2F2E41"/>
<path id="Vector_29" d="M189.033 87.0274L191.033 66.3726C191.115 65.4973 190.848 64.6249 190.291 63.9436C189.734 63.2623 188.931 62.8269 188.054 62.7312C187.169 62.6345 186.281 62.8925 185.587 63.4485C184.892 64.0045 184.447 64.813 184.351 65.696C184.344 65.7549 184.339 65.8139 184.336 65.8731L182.918 87.3918L181.505 100.431C180.928 100.604 180.419 100.949 180.047 101.421C179.674 101.892 179.456 102.466 179.422 103.066C179.388 103.665 179.54 104.26 179.857 104.77C180.174 105.28 180.641 105.681 181.194 105.917C181.747 106.153 182.36 106.214 182.949 106.091C183.538 105.968 184.075 105.667 184.486 105.229C184.898 104.791 185.164 104.238 185.249 103.643C185.334 103.049 185.234 102.443 184.962 101.908L189.033 87.0274Z" fill="#FFB6B6"/>
<path id="Vector_30" d="M181.536 55.903L188.74 56.8037C188.74 56.8037 194.137 66.9504 193.026 67.8115C191.915 68.6726 186.895 74.0449 183.194 71.5821C179.493 69.1194 181.536 55.903 181.536 55.903Z" fill="#3F3D56"/>
<path id="Vector_31" d="M169.13 46.1679C173.353 46.1679 176.776 42.7538 176.776 38.5423C176.776 34.3309 173.353 30.9168 169.13 30.9168C164.907 30.9168 161.484 34.3309 161.484 38.5423C161.484 42.7538 164.907 46.1679 169.13 46.1679Z" fill="#FFB6B6"/>
<path id="Vector_32" d="M172.084 45.5428C169.89 45.471 169.691 44.893 167.497 44.8212C166.798 44.7984 165.974 44.7029 165.636 44.0925C165.538 43.8639 165.494 43.6156 165.508 43.3672C165.522 43.1188 165.594 42.8771 165.718 42.661C165.968 42.2322 166.194 41.7894 166.394 41.335C166.514 40.9786 166.546 40.5983 166.486 40.227C166.426 39.8557 166.276 39.5045 166.05 39.2039C165.823 38.9032 165.527 38.6621 165.186 38.5014C164.845 38.3407 164.47 38.2652 164.093 38.2814C163.425 38.3102 162.798 38.6233 162.132 38.6806C161.219 38.7591 159.2 35.7521 159.62 34.9398C160.03 34.1491 160.853 33.5526 160.983 32.6722C161.067 32.0964 160.829 31.5243 160.796 30.9432C160.748 30.0816 162.938 32.0243 162.537 31.2597C161.553 29.384 170.823 27.0587 172.35 29.4081C172.92 30.2862 173.937 30.2263 174.843 30.7537C175.437 31.0993 176.936 32.2916 177.277 33.0348C177.59 33.7932 177.738 34.6093 177.711 35.429C177.725 39.2413 177.143 42.748 174.059 45.0015" fill="#2F2E41"/>
<path id="Vector_33" d="M167.099 48.2886L173.4 46.9656L178.24 49.2872C178.24 49.2872 189.687 53.8797 189.648 58.408C189.609 62.9363 187.597 72.8586 185.287 73.8508C182.977 74.843 187.288 78.1505 185.962 80.1349C184.635 82.1194 182.626 95.6769 182.626 95.6769C182.626 95.6769 187.323 105.01 183.349 106.83C179.375 108.651 162.579 110.352 161.503 107.977C160.426 105.602 160.416 106.898 157.934 106.25C155.452 105.602 157.937 96.5159 160.176 95.6018C162.416 94.6877 163.742 74.843 163.742 74.843L160.176 59.4127L165.617 51.7743L167.099 48.2886Z" fill="#3F3D56"/>
<path id="Vector_34" d="M162.686 90.7029L168.379 70.7439C168.617 69.8976 168.513 68.9916 168.088 68.2215C167.662 67.4514 166.951 66.8789 166.106 66.6275C165.252 66.3735 164.333 66.4681 163.549 66.8904C162.766 67.3127 162.182 68.0281 161.928 68.8794C161.911 68.9361 161.895 68.9933 161.881 69.0509L156.605 89.9642L152.862 102.537C152.264 102.604 151.701 102.852 151.25 103.249C150.798 103.646 150.48 104.172 150.339 104.755C150.197 105.338 150.239 105.951 150.459 106.51C150.679 107.068 151.066 107.546 151.567 107.878C152.069 108.209 152.661 108.379 153.262 108.364C153.864 108.348 154.446 108.149 154.93 107.792C155.414 107.435 155.776 106.938 155.966 106.369C156.157 105.8 156.168 105.186 155.997 104.61L162.686 90.7029Z" fill="#FFB6B6"/>
<path id="Vector_35" d="M160.925 58.7411L167.849 60.9197C167.849 60.9197 172.353 67.5148 170.667 68.4557C168.981 69.3966 168.348 69.1976 169.214 70.8573C170.08 72.517 171.328 71.8693 170.08 72.517C168.832 73.1648 162.925 77.5486 159.728 74.4619C156.532 71.3753 160.925 58.7411 160.925 58.7411Z" fill="#3F3D56"/>
<path id="Vector_36" d="M1.75668e-06 183.606C-0.000152641 183.658 0.00987212 183.709 0.029503 183.757C0.0491339 183.804 0.0779865 183.848 0.114414 183.884C0.150842 183.921 0.194133 183.95 0.241811 183.97C0.289489 183.99 0.340622 184 0.392293 184H237.605C237.71 184 237.81 183.959 237.884 183.885C237.958 183.811 238 183.711 238 183.606C238 183.502 237.958 183.402 237.884 183.328C237.81 183.254 237.71 183.213 237.605 183.213H0.394641C0.342968 183.213 0.291774 183.223 0.243977 183.242C0.196179 183.262 0.152714 183.291 0.116069 183.327C0.0794231 183.363 0.0503134 183.406 0.0303987 183.454C0.010484 183.502 0.000153522 183.553 1.75668e-06 183.604V183.606Z" fill="#CCCCCC"/>
<path id="Vector_37" d="M141.55 69.8707C145.288 69.8707 148.319 66.8481 148.319 63.1196C148.319 59.3911 145.288 56.3685 141.55 56.3685C137.811 56.3685 134.781 59.3911 134.781 63.1196C134.781 66.8481 137.811 69.8707 141.55 69.8707Z" fill="#1565C8"/>
<path id="Vector_38" d="M140.626 66.6333C140.509 66.6333 140.394 66.6061 140.29 66.554C140.185 66.5018 140.094 66.4261 140.024 66.3328L138.177 63.8771C138.057 63.7177 138.006 63.5175 138.034 63.3203C138.063 63.1231 138.168 62.9452 138.328 62.8257C138.488 62.7062 138.689 62.6549 138.886 62.6831C139.084 62.7113 139.262 62.8166 139.382 62.976L140.59 64.5825L143.693 59.9403C143.804 59.7742 143.975 59.6585 144.171 59.6188C144.367 59.579 144.57 59.6184 144.737 59.7283C144.903 59.8381 145.019 60.0095 145.059 60.2047C145.099 60.3999 145.06 60.6028 144.949 60.7689L144.946 60.7735L141.253 66.2989C141.186 66.3988 141.096 66.4813 140.991 66.5394C140.886 66.5976 140.768 66.6297 140.647 66.6331L140.626 66.6333Z" fill="white"/>
</g>
</g>
<defs>
<clipPath id="clip0_0_1">
<rect width="375" height="812" fill="white" transform="translate(-68 -263)"/>
</clipPath>
<clipPath id="clip1_0_1">
<rect width="238" height="184" fill="white"/>
</clipPath>
</defs>
</svg>
